<svg width="933" height="734" viewBox="0 0 933 734" fill="none" xmlns="http://www.w3.org/2000/svg">
<g clip-path="url(#clip0_433_259)">
<path d="M759.895 2.02051C784.714 68.0383 909.51 344.218 719.219 523.842C594.299 641.759 400.528 628.704 558.846 476.725C699.42 341.78 400.5 835.404 58.9697 649.653C47.5396 642.191 36.0882 633.84 24.6338 624.541C16.0346 617.559 2.13273 600.903 0 590.034V590.034" stroke="#292524" stroke-width="0.920548" stroke-linecap="round"/>
<path d="M758.023 21.8524C758.023 16.319 758.023 10.7855 758.023 5.2521C758.023 3.73844 758.023 2.22479 758.023 0.711141C758.023 0.638932 757.918 -0.248156 758.154 0.0677764C758.607 0.676938 759.302 1.13856 759.892 1.5939C764.264 4.9656 768.664 8.25519 772.719 12.0448C773.689 12.9512 774.971 14.4148 774.971 15.8975C774.971 16.4786 772.749 15.4739 772.552 15.3888C770.203 14.3729 767.485 14.662 765.425 12.9351C763.188 11.059 762.46 8.17456 761.536 5.49149C761.375 5.02503 761.086 3.36996 760.631 3.13498" stroke="#292524" stroke-width="0.920548" stroke-linecap="round"/>
</g>
<defs>
<clipPath id="clip0_433_259">
<rect width="933" height="734" fill="white"/>
</clipPath>
</defs>
</svg>
